<?xml version="1.0" encoding="UTF-8" standalone="no"?>
<!-- Created with Inkscape (http://www.inkscape.org/) -->

<svg
   width="125mm"
   height="85mm"
   viewBox="0 0 125 85"
   version="1.1"
   id="svg5"
   inkscape:version="1.2.2 (b0a8486541, 2022-12-01, custom)"
   sodipodi:docname="delete.svg"
   xmlns:inkscape="http://www.inkscape.org/namespaces/inkscape"
   xmlns:sodipodi="http://sodipodi.sourceforge.net/DTD/sodipodi-0.dtd"
   xmlns="http://www.w3.org/2000/svg"
   xmlns:svg="http://www.w3.org/2000/svg">
  <sodipodi:namedview
     id="namedview7"
     pagecolor="#ffffff"
     bordercolor="#111111"
     borderopacity="1"
     inkscape:showpageshadow="false"
     inkscape:pageopacity="0"
     inkscape:pagecheckerboard="1"
     inkscape:deskcolor="#d1d1d1"
     inkscape:document-units="mm"
     showgrid="false"
     inkscape:zoom="1"
     inkscape:cx="182"
     inkscape:cy="206.5"
     inkscape:window-width="1526"
     inkscape:window-height="836"
     inkscape:window-x="0"
     inkscape:window-y="0"
     inkscape:window-maximized="1"
     inkscape:current-layer="layer1"
     showborder="false" />
  <defs
     id="defs2">
    <inkscape:path-effect
       effect="powerstroke"
       id="path-effect445"
       is_visible="true"
       lpeversion="1"
       offset_points="0,4.9921382"
       not_jump="false"
       sort_points="true"
       interpolator_type="CubicBezierJohan"
       interpolator_beta="0.2"
       start_linecap_type="zerowidth"
       linejoin_type="extrp_arc"
       miter_limit="4"
       scale_width="1"
       end_linecap_type="zerowidth" />
    <inkscape:path-effect
       effect="fill_between_many"
       method="bsplinespiro"
       linkedpaths="#path443,0,1"
       id="path-effect447"
       is_visible="true"
       lpeversion="0"
       join="true"
       close="true"
       autoreverse="true" />
  </defs>
  <g
     inkscape:label="Layer 1"
     inkscape:groupmode="layer"
     id="layer1">
    <path
       style="fill:#000000;stroke-width:0.265307"
       d="M 29.91219,0 29.99999,85 0,42.355189 Z"
       id="path518" />
    <rect
       style="fill:#ff0000;stroke-width:0.201419"
       id="rect574"
       width="95"
       height="10"
       x="-124.99999"
       y="0"
       transform="scale(-1,1)" />
    <rect
       style="fill:#ff0000;stroke-width:0.201419"
       id="rect574-2"
       width="95"
       height="10"
       x="-124.99999"
       y="75"
       transform="scale(-1,1)" />
    <rect
       style="fill:#ff0000;stroke-width:0.166608"
       id="rect574-2-2"
       width="10"
       height="65"
       x="-124.99999"
       y="10"
       transform="scale(-1,1)" />
    <rect
       style="fill:#ff0000;stroke-width:0.166609"
       id="rect574-2-2-9"
       width="10"
       height="65"
       x="-39.999989"
       y="10"
       transform="scale(-1,1)" />
    <rect
       style="fill:#ff00ff;stroke-width:0.264584"
       id="rect817"
       width="2"
       height="2"
       x="-78.499992"
       y="41.5"
       transform="scale(-1,1)" />
    <path
       style="fill:#ff00ff;stroke-width:0.264583"
       d="m 113.19467,11.828902 -1.62318,0.0099 -33.688047,28.695134 -34.589024,-28.668812 -1.800301,-0.183704 0.0038,1.917103 33.713274,28.782874 -33.491183,29.129995 -0.153543,1.831009 1.778913,0.01207 33.938654,-28.54543 34.382837,28.690199 1.65005,0.03071 -0.0236,-1.908879 L 79.591066,42.769067 113.12228,13.589171 Z"
       id="path868" />
    <path
       style="fill:#000000;stroke-width:0.140383"
       d="m 113.27012,72.542846 -0.008,-0.877392 L 96.427644,57.276211 C 87.168633,49.362127 79.611111,42.823794 79.633156,42.746583 c 0.02204,-0.07721 7.459017,-6.598386 16.526611,-14.491502 9.067593,-7.893116 16.597083,-14.485826 16.732203,-14.650467 0.15965,-0.194539 0.24567,-0.539655 0.24567,-0.985708 v -0.686362 h -0.77988 -0.77988 L 94.804235,26.2165 c -9.225505,7.856176 -16.852246,14.277449 -16.948319,14.269499 -0.146,-0.01209 -6.691651,-5.411105 -32.267133,-26.614742 -2.330051,-1.931754 -2.34501,-1.941262 -3.193712,-2.029969 l -0.852696,-0.08912 0.0021,0.897391 0.0021,0.897392 16.847516,14.378366 c 9.266137,7.908099 16.830095,14.428861 16.808796,14.49058 -0.0213,0.06172 -7.49305,6.590258 -16.6039,14.507866 -9.110848,7.917609 -16.643212,14.536682 -16.738587,14.709056 -0.09537,0.172373 -0.174339,0.613473 -0.175479,0.980223 l -0.0021,0.666818 h 0.814469 0.814467 L 60.25215,59.030996 c 9.317204,-7.836873 16.980648,-14.248862 17.029869,-14.248862 0.04922,0 7.812725,6.443575 17.252224,14.319054 l 17.162647,14.319051 h 0.79057 0.79056 z"
       id="path1008" />
    <path
       style="fill:#000000;stroke-width:0.140383"
       d="M 124.9298,42.536009 V 10.107566 h -4.9134 -4.9134 V 42.536009 74.96445 h 4.9134 4.9134 z"
       id="path1010" />
    <path
       style="fill:#000000;stroke-width:0.140383"
       d="M 124.9298,80.018235 V 75.104833 H 77.48039 30.030981 v 4.913402 4.9134 H 77.48039 124.9298 Z"
       id="path1012" />
    <path
       style="fill:#000000;stroke-width:0.140383"
       d="M 39.998163,42.536009 V 10.107566 H 35.014572 30.030981 V 42.536009 74.96445 h 4.983591 4.983591 z"
       id="path1014" />
    <path
       style="fill:#000000;stroke-width:0.140383"
       d="M 124.9298,4.9835919 V 0 H 77.48039 30.030981 V 4.9835919 9.9671834 H 77.48039 124.9298 Z"
       id="path1016" />
    <path
       style="fill:#000000;stroke-width:0.140383"
       d="M 124.9298,42.536009 V 10.107566 h -4.9134 -4.9134 V 42.536009 74.96445 h 4.9134 4.9134 z"
       id="path1018" />
    <path
       style="fill:#000000;stroke-width:0.140383"
       d="M 124.9298,42.536009 V 10.107566 h -4.9134 -4.9134 V 42.536009 74.96445 h 4.9134 4.9134 z"
       id="path1020" />
    <path
       style="fill:#000000;stroke-width:0.140383"
       d="M 124.9298,37.482227 V 0 H 77.48039 30.030981 v 4.9833627 4.9833628 l 42.500912,0.035323 42.500917,0.03533 0.0354,32.463538 0.0354,32.463538 h 4.9131 4.9131 z"
       id="path1022" />
    <path
       style="fill:#000000;stroke-width:0.140383"
       d="M 124.9298,42.465818 V 0 H 77.48039 30.030981 v 4.9835919 4.9835915 h 42.536306 42.536303 l -0.0354,32.5337286 -0.0354,32.53373 -42.500917,0.03532 -42.500912,0.03533 v 4.913172 4.913172 H 77.48039 124.9298 Z"
       id="path1024" />
    <path
       style="fill:#000000;stroke-width:0.140383"
       d="M 124.9298,42.465818 V 0 H 77.48039 30.030981 V 4.9835919 9.9671834 H 72.56699 115.103 V 42.536009 75.104833 l -39.482684,-0.03079 c -21.715475,-0.01693 -38.614061,-0.0503 -37.552418,-0.07415 l 1.930265,-0.04336 V 42.532048 10.107566 H 35.014572 30.030981 V 47.5196 84.931635 H 77.48039 124.9298 Z"
       id="path1026" />
    <path
       style="fill:#000000;stroke-width:0.140383"
       d="M 124.9298,42.465818 V 0 H 77.48039 30.030981 V 4.9835919 9.9671834 H 72.56699 115.103 V 42.536009 75.104833 l -38.500003,-0.0275 c -21.175,-0.01511 -38.073589,-0.04959 -37.552418,-0.07661 l 0.947584,-0.04911 V 42.529595 10.107566 H 35.014572 30.030981 V 47.5196 84.931635 H 77.48039 124.9298 Z m -95.039201,0.0031 c 0,-23.365534 -0.05359,-42.18476432 -0.119915,-42.11100026 C 29.704734,0.43131578 23.188486,9.6513114 15.290131,20.846845 7.3917791,32.04238 0.74472086,41.462555 0.51889369,41.780568 L 0.10829212,42.358772 14.759409,63.188955 c 8.058113,11.456598 14.759133,20.986374 14.891152,21.177279 0.226697,0.327808 0.240038,-2.000491 0.240038,-41.897268 z"
       id="path1028" />
    <path
       style="fill:#000000;stroke-width:0.140383"
       d="M 124.9298,42.465818 V 0 H 77.48039 30.030981 L 29.999462,3.7552418 29.967942,7.5104833 29.894173,3.889898 29.820405,0.26931247 15.024908,21.219703 C 6.8873853,32.742417 0.22270853,42.241284 0.21451438,42.328295 0.2063123,42.415306 6.8642978,51.962637 15.010014,63.544584 l 14.810391,21.058089 0.07058,-37.493222 c 0.03882,-20.621276 0.0862,-37.4142592 0.105285,-37.3177461 0.02767,0.1399207 8.654008,0.1754785 42.570717,0.1754785 H 115.103 V 42.536009 75.104833 L 77.094336,75.08237 C 56.189573,75.07001 39.290985,75.03443 39.541919,75.00328 l 0.456244,-0.05662 V 42.527114 10.107566 H 35.014572 30.030981 V 47.5196 84.931635 H 77.48039 124.9298 Z"
       id="path1030" />
    <path
       style="fill:#000000;stroke-width:0.140383"
       d="M 124.9298,42.465818 V 0 H 77.48039 30.030981 l -0.03152,3.7552418 -0.03152,3.7552415 -0.07377,-3.624182 -0.07377,-3.6241823 -14.599817,20.66732 C 7.1906878,32.296465 0.50661967,41.77239 0.36709959,41.987054 L 0.11342768,42.377352 12.734452,60.320401 c 6.941563,9.868675 13.625634,19.37036 14.853489,21.114853 l 2.232464,3.171806 0.07058,-37.495416 0.07058,-37.4954176 0.0347,37.6577056 0.03471,37.657703 H 77.48039 124.9298 Z M 39.822687,75.011861 c 0.139673,-0.05636 0.175476,-6.699546 0.175476,-32.557741 V 9.9671834 H 77.550581 115.103 V 42.536009 75.104833 l -37.727898,-0.01109 c -20.750342,-0.0061 -37.64893,-0.04294 -37.552415,-0.08189 z"
       id="path1032" />
    <path
       style="fill:#000000;stroke-width:0.140383"
       d="M 124.9298,42.465818 V 0 H 77.48039 30.030981 l -0.02289,0.87739293 -0.02289,0.87739287 -0.0824,-0.7507517 -0.08241,-0.75075179 -0.429379,0.6103689 C 29.154861,1.1993541 22.517537,10.602416 14.641413,21.759344 6.7652854,32.916272 0.2753077,42.122018 0.2192372,42.216556 0.156396,42.322509 5.1656331,49.565332 13.277941,61.098051 20.516295,71.388337 27.199495,80.892993 28.129492,82.219513 l 1.690905,2.411855 0.07059,-36.805656 0.07059,-36.805657 0.0347,36.95579 0.0347,36.95579 H 77.48039 124.9298 Z m -84.966138,0.07019 0.03569,-32.5688256 H 77.551174 115.103 V 42.536009 75.104833 l -37.587516,3e-6 -37.587512,2e-6 z M 29.930244,6.0734892 c 0.03227,-0.2133907 0.05953,-0.072122 0.06058,0.3139313 0.0011,0.3860527 -0.02535,0.5606452 -0.05867,0.3879831 -0.03332,-0.1726623 -0.03418,-0.4885237 -0.0019,-0.7019144 z"
       id="path1034" />
    <path
       style="fill:#000000;stroke-width:0.0031084"
       d="m 77.528356,40.242286 c -0.0034,-0.0034 -0.4885,-0.405736 -1.077954,-0.894144 l -1.071738,-0.88801 -0.02989,7.94e-4 -0.02989,7.93e-4 0.31831,0.259789 c 0.872871,0.712399 1.410128,1.146308 1.789546,1.4453 0.09104,0.07174 0.11911,0.09254 0.101621,0.07529 z"
       id="path1038" />
    <path
       style="fill:#000000;stroke-width:0.0031084"
       d="m 74.079573,41.408831 c 0,-0.0063 -1.709565,-1.49066 -2.95765,-2.568064 l -0.15853,-0.136848 -7.94e-4,0.02331 c -7.93e-4,0.01918 7.4e-5,0.02424 0.0047,0.02857 0.01376,0.01297 3.109365,2.654438 3.110812,2.654438 7.94e-4,0 0.0016,-5.3e-4 0.0016,-0.0013 z"
       id="path1040" />
  </g>
</svg>
