<?xml version="1.0" encoding="UTF-8" standalone="no"?>
<!-- Created with Inkscape (http://www.inkscape.org/) -->

<svg
   width="125mm"
   height="85mm"
   viewBox="0 0 125 85"
   version="1.1"
   id="svg5"
   inkscape:version="1.2.2 (b0a8486541, 2022-12-01, custom)"
   sodipodi:docname="delete.svg"
   xmlns:inkscape="http://www.inkscape.org/namespaces/inkscape"
   xmlns:sodipodi="http://sodipodi.sourceforge.net/DTD/sodipodi-0.dtd"
   xmlns="http://www.w3.org/2000/svg"
   xmlns:svg="http://www.w3.org/2000/svg">
  <sodipodi:namedview
     id="namedview7"
     pagecolor="#ffffff"
     bordercolor="#111111"
     borderopacity="1"
     inkscape:showpageshadow="false"
     inkscape:pageopacity="0"
     inkscape:pagecheckerboard="1"
     inkscape:deskcolor="#d1d1d1"
     inkscape:document-units="mm"
     showgrid="false"
     inkscape:zoom="1"
     inkscape:cx="182"
     inkscape:cy="206.5"
     inkscape:window-width="1526"
     inkscape:window-height="836"
     inkscape:window-x="0"
     inkscape:window-y="0"
     inkscape:window-maximized="1"
     inkscape:current-layer="layer1"
     showborder="false" />
  <defs
     id="defs2">
    <inkscape:path-effect
       effect="powerstroke"
       id="path-effect445"
       is_visible="true"
       lpeversion="1"
       offset_points="0,4.9921382"
       not_jump="false"
       sort_points="true"
       interpolator_type="CubicBezierJohan"
       interpolator_beta="0.2"
       start_linecap_type="zerowidth"
       linejoin_type="extrp_arc"
       miter_limit="4"
       scale_width="1"
       end_linecap_type="zerowidth" />
    <inkscape:path-effect
       effect="fill_between_many"
       method="bsplinespiro"
       linkedpaths="#path443,0,1"
       id="path-effect447"
       is_visible="true"
       lpeversion="0"
       join="true"
       close="true"
       autoreverse="true" />
  </defs>
  <g
     inkscape:label="Layer 1"
     inkscape:groupmode="layer"
     id="layer1">
    <path
       style="fill:#000000;stroke-width:0.265307"
       d="M 95.0878,0 95,85 124.99999,42.355189 Z"
       id="path518" />
    <rect
       style="fill:#ff0000;stroke-width:0.201419"
       id="rect574"
       width="95"
       height="10"
       x="0"
       y="0" />
    <rect
       style="fill:#ff0000;stroke-width:0.201419"
       id="rect574-2"
       width="95"
       height="10"
       x="0"
       y="75" />
    <rect
       style="fill:#ff0000;stroke-width:0.166608"
       id="rect574-2-2"
       width="10"
       height="65"
       x="0"
       y="10" />
    <rect
       style="fill:#ff0000;stroke-width:0.166609"
       id="rect574-2-2-9"
       width="10"
       height="65"
       x="85"
       y="10" />
    <rect
       style="fill:#ff00ff;stroke-width:0.264584"
       id="rect817"
       width="2"
       height="2"
       x="46.5"
       y="41.5" />
    <path
       style="fill:#ff00ff;stroke-width:0.264583"
       d="m 11.805322,11.828902 1.623177,0.0099 33.688048,28.695134 34.589024,-28.668812 1.800301,-0.183704 -0.0038,1.917103 -33.713274,28.782874 33.491183,29.129995 0.153543,1.831009 -1.778913,0.01207 -33.938654,-28.54543 -34.382836,28.690199 -1.650047,0.03071 0.02358,-1.908879 33.70227,-28.852004 -33.531217,-29.179896 z"
       id="path868" />
    <path
       style="fill:#000000;stroke-width:0.530581"
       d="m 44.33338,274.17769 0.02987,-3.31613 63.62672,-54.38454 c 34.99469,-29.9115 63.55855,-54.62331 63.47523,-54.91513 -0.0833,-0.29182 -28.19156,-24.93878 -62.46278,-54.77103 C 74.731206,76.958607 46.273289,52.041278 45.762605,51.419015 45.15918,50.683749 44.834088,49.379373 44.834088,47.693503 v -2.594125 h 2.947577 2.947577 l 63.396448,53.986609 c 34.86805,29.692633 63.69353,53.962013 64.05664,53.931963 0.55181,-0.0457 25.29128,-20.45142 121.95452,-100.591153 8.80649,-7.301117 8.86303,-7.33705 12.07072,-7.672321 l 3.22279,-0.336848 -0.008,3.391716 -0.008,3.391715 -63.67565,54.343431 c -35.02162,29.88888 -63.60981,54.53428 -63.52931,54.76755 0.0805,0.23327 28.32019,24.90806 62.7549,54.83288 34.4347,29.92482 62.90348,54.94179 63.26395,55.59328 0.36047,0.65149 0.65892,2.31864 0.66323,3.70478 l 0.008,2.52026 h -3.07831 -3.0783 l -64.02662,-53.85396 c -35.21463,-29.61968 -64.17883,-53.85397 -64.36486,-53.85397 -0.18605,0 -29.52841,24.35367 -65.20526,54.11926 L 50.279432,277.49382 H 47.29147 44.303507 Z"
       id="path1008"
       transform="scale(0.26458333)" />
    <path
       style="fill:#000000;stroke-width:0.530581"
       d="M 0.26529046,160.76602 V 38.201826 H 18.835623 37.405955 V 160.76602 283.33021 H 18.835623 0.26529046 Z"
       id="path1010"
       transform="scale(0.26458333)" />
    <path
       style="fill:#000000;stroke-width:0.530581"
       d="M 0.26529046,302.43113 V 283.86079 H 179.60164 358.93799 v 18.57034 18.57033 H 179.60164 0.26529046 Z"
       id="path1012"
       transform="scale(0.26458333)" />
    <path
       style="fill:#000000;stroke-width:0.530581"
       d="M 321.26675,160.76602 V 38.201826 h 18.83562 18.83562 V 160.76602 283.33021 h -18.83562 -18.83562 z"
       id="path1014"
       transform="scale(0.26458333)" />
    <path
       style="fill:#000000;stroke-width:0.530581"
       d="M 0.26529046,18.835623 V 0 H 179.60164 358.93799 V 18.835623 37.671245 H 179.60164 0.26529046 Z"
       id="path1016"
       transform="scale(0.26458333)" />
    <path
       style="fill:#000000;stroke-width:0.530581"
       d="M 0.26529046,160.76602 V 38.201826 H 18.835623 37.405955 V 160.76602 283.33021 H 18.835623 0.26529046 Z"
       id="path1018"
       transform="scale(0.26458333)" />
    <path
       style="fill:#000000;stroke-width:0.530581"
       d="M 0.26529046,160.76602 V 38.201826 H 18.835623 37.405955 V 160.76602 283.33021 H 18.835623 0.26529046 Z"
       id="path1020"
       transform="scale(0.26458333)" />
    <path
       style="fill:#000000;stroke-width:0.530581"
       d="M 0.26529046,141.66511 V 0 H 179.60164 358.93799 V 18.834757 37.669514 L 198.30462,37.803025 37.671245,37.936536 37.537471,160.63337 37.403697,283.33021 H 18.834494 0.26529046 Z"
       id="path1022"
       transform="scale(0.26458333)" />
    <path
       style="fill:#000000;stroke-width:0.530581"
       d="M 0.26529046,160.50073 V 0 H 179.60164 358.93799 V 18.835623 37.671245 H 198.17085 37.403702 l 0.133772,122.962125 0.133771,122.96213 160.633375,0.13351 160.63337,0.13351 v 18.56947 18.56947 H 179.60164 0.26529046 Z"
       id="path1024"
       transform="scale(0.26458333)" />
    <path
       style="fill:#000000;stroke-width:0.530581"
       d="M 0.26529046,160.50073 V 0 H 179.60164 358.93799 V 18.835623 37.671245 H 198.17197 37.405955 V 160.76602 283.86079 l 149.225885,-0.11638 c 82.07424,-0.064 145.94291,-0.19012 141.9304,-0.28026 l -7.29549,-0.16388 V 160.75105 38.201826 h 18.83562 18.83562 V 179.60164 321.00146 H 179.60164 0.26529046 Z"
       id="path1026"
       transform="scale(0.26458333)" />
    <path
       style="fill:#000000;stroke-width:0.530581"
       d="M 0.26529046,160.50073 V 0 H 179.60164 358.93799 V 18.835623 37.671245 H 198.17197 37.405955 V 160.76602 283.86079 l 145.511815,-0.10392 c 80.0315,-0.0571 143.90018,-0.18744 141.9304,-0.28953 l -3.58142,-0.18561 V 160.74178 38.201826 h 18.83562 18.83562 V 179.60164 321.00146 H 179.60164 0.26529046 Z m 359.20327954,0.0119 c 0,-88.310682 0.20254,-159.4384819 0.45322,-159.1596886 0.24926,0.2772285 24.8776,35.1244566 54.72965,77.4382856 29.85204,42.313833 54.97478,77.917643 55.8283,79.119583 l 1.55188,2.18534 -55.3743,78.72825 c -30.45586,43.30053 -55.78255,79.31858 -56.28152,80.04011 -0.85681,1.23896 -0.90723,-7.56091 -0.90723,-158.35188 z"
       id="path1028"
       transform="scale(0.26458333)" />
    <path
       style="fill:#000000;stroke-width:0.530581"
       d="M 0.26529046,160.50073 V 0 H 179.60164 358.93799 l 0.11913,14.19304 0.11913,14.193039 0.27881,-13.684102 0.27881,-13.6841031 55.91999,79.1825791 c 30.75599,43.550417 55.94532,79.451647 55.97629,79.780507 0.031,0.32886 -25.13304,36.41326 -55.92,80.18755 l -55.97628,79.58963 -0.26677,-141.70667 c -0.14671,-77.93868 -0.32578,-141.408225 -0.39793,-141.043451 -0.10459,0.528834 -32.70806,0.663226 -160.8972,0.663226 H 37.405955 V 160.76602 283.86079 l 143.654785,-0.0849 c 79.01013,-0.0467 142.87881,-0.18121 141.9304,-0.29891 l -1.72439,-0.21399 V 160.7324 38.201826 h 18.83562 18.83562 V 179.60164 321.00146 H 179.60164 0.26529046 Z"
       id="path1030"
       transform="scale(0.26458333)" />
    <path
       style="fill:#000000;stroke-width:0.530581"
       d="M 0.26529046,160.50073 V 0 H 179.60164 358.93799 l 0.11913,14.19304 0.11913,14.193039 0.27881,-13.697696 0.27881,-13.697697 55.18041,78.112706 c 30.34923,42.961988 55.61185,78.776508 56.13917,79.587838 l 0.95876,1.47514 -47.70151,67.81625 c -26.23583,37.29893 -51.49846,73.21081 -56.13917,79.80417 l -8.43766,11.98793 -0.26677,-141.71496 -0.26676,-141.714967 -0.13117,142.328337 -0.13118,142.32833 H 179.60164 0.26529046 Z M 321.92997,283.5094 c -0.5279,-0.21301 -0.66322,-25.32112 -0.66322,-123.05288 V 37.671245 H 179.33635 37.405955 V 160.76602 283.86079 l 142.593625,-0.0419 c 78.42649,-0.023 142.29517,-0.16231 141.93039,-0.3095 z"
       id="path1032"
       transform="scale(0.26458333)" />
    <path
       style="fill:#000000;stroke-width:0.530581"
       d="M 0.26529046,160.50073 V 0 H 179.60164 358.93799 l 0.0865,3.3161308 0.0865,3.3161307 0.31145,-2.837487 0.31146,-2.83748703 1.62285,2.30690613 c 0.89256,1.2687983 25.97851,36.8079304 55.74654,78.9758494 29.76804,42.167917 54.29709,76.961287 54.50901,77.318597 0.23751,0.40045 -18.69504,27.7749 -49.35573,71.36313 -27.35756,38.89242 -52.6169,74.81553 -56.13185,79.82915 l -6.39082,9.11567 -0.26679,-139.10799 -0.26679,-139.107998 -0.13115,139.675428 -0.13115,139.67543 H 179.60164 0.26529046 Z M 321.39715,160.76602 321.26226,37.671245 H 179.33411 37.405955 V 160.76602 283.86079 l 142.063045,10e-6 142.06304,1e-5 z m 37.92158,-137.8111 c -0.12196,-0.806516 -0.225,-0.272586 -0.22898,1.186512 -0.004,1.459097 0.0958,2.118974 0.22174,1.466393 0.12593,-0.652582 0.1292,-1.846389 0.007,-2.652905 z"
       id="path1034"
       transform="scale(0.26458333)" />
    <path
       style="fill:#000000;stroke-width:0.0117483"
       d="m 179.42035,152.09683 c 0.0129,-0.0128 1.8463,-1.53349 4.07416,-3.37944 l 4.05066,-3.35626 0.11298,0.003 0.11298,0.003 -1.20306,0.98188 c -3.29904,2.69253 -5.32962,4.3325 -6.76364,5.46255 -0.34409,0.27115 -0.45018,0.34975 -0.38408,0.28455 z"
       id="path1038"
       transform="scale(0.26458333)" />
    <path
       style="fill:#000000;stroke-width:0.0117483"
       d="m 192.45512,156.50582 c 0,-0.0238 6.46135,-5.63399 11.17852,-9.70607 l 0.59917,-0.51722 0.003,0.0881 c 0.003,0.0725 -2.8e-4,0.0916 -0.0176,0.10799 -0.052,0.049 -11.75193,10.03252 -11.7574,10.03252 -0.003,0 -0.006,-0.002 -0.006,-0.005 z"
       id="path1040"
       transform="scale(0.26458333)" />
  </g>
</svg>
